<svg viewBox="0 0 69.00527373847785 74.19206575404223" xmlns="http://www.w3.org/2000/svg">
  <g stroke-linecap="round">
    <g transform="translate(26.448280844288547 61.02527692982221) rotate(0 5.235454290811333 -22.59595024914688)">
      <path d="M1.41 -1.84 C3.14 -16.47, 7.99 -34.45, 10.74 -43.95 M0.81 -0.26 C3.24 -16.56, 7.89 -33.1, 10.81 -45.78" stroke="currentColor" stroke-width="4" fill="none"></path>
    </g>
    <g transform="translate(26.448280844288547 61.02527692982221) rotate(0 5.235454290811333 -22.59595024914688)">
      <path d="M14.8 -24.58 C11.28 -30.34, 10.91 -39.46, 11.08 -44.54 M14.2 -22.99 C11.89 -31.38, 11.8 -39.89, 11.14 -46.38" stroke="currentColor" stroke-width="4" fill="none"></path>
    </g>
    <g transform="translate(26.448280844288547 61.02527692982221) rotate(0 5.235454290811333 -22.59595024914688)">
      <path d="M-0.62 -28.31 C2.01 -32.6, 7.82 -40.24, 11.08 -44.54 M-1.22 -26.72 C2.07 -33.61, 7.58 -40.76, 11.14 -46.38" stroke="currentColor" stroke-width="4" fill="none"></path>
    </g>
    <g transform="translate(10.592929690144956 56.32148451364719) rotate(0 4.505900137722051 -22.90771836511385)">
      <path d="M1.24 1.26 C2.1 -14.67, 6.24 -25.98, 7.89 -46.32 M-0.59 0.69 C2.88 -15.99, 5.76 -30.7, 8.67 -45.52" stroke="currentColor" stroke-width="4" fill="none"></path>
    </g>
    <g transform="translate(10.592929690144956 56.32148451364719) rotate(0 4.505900137722051 -22.90771836511385)">
      <path d="M13.51 -21.19 C11.06 -30.79, 11.7 -35.78, 7.55 -46.02 M11.67 -21.76 C10.92 -30.93, 9.66 -38.17, 8.34 -45.22" stroke="currentColor" stroke-width="4" fill="none"></path>
    </g>
    <g transform="translate(10.592929690144956 56.32148451364719) rotate(0 4.505900137722051 -22.90771836511385)">
      <path d="M-2.16 -24.28 C-0.23 -33.04, 4.76 -37.17, 7.55 -46.02 M-3.99 -24.85 C0.38 -33.06, 4.26 -39.28, 8.34 -45.22" stroke="currentColor" stroke-width="4" fill="none"></path>
    </g>
    <g transform="translate(46.28996995642672 64.19206575404223) rotate(0 6.357651891025569 -22.71412042213433)">
      <path d="M0 0 C1.85 -10.06, 5.44 -19.02, 12.72 -45.43 M0 0 C3.13 -10.95, 6.25 -21.85, 12.72 -45.43" stroke="currentColor" stroke-width="4" fill="none"></path>
    </g>
    <g transform="translate(46.28996995642672 64.19206575404223) rotate(0 6.357651891025569 -22.71412042213433)">
      <path d="M14.6 -21.92 C13.38 -27.54, 14 -32.06, 12.72 -45.43 M14.6 -21.92 C14.15 -27.66, 13.77 -33.28, 12.72 -45.43" stroke="currentColor" stroke-width="4" fill="none"></path>
    </g>
    <g transform="translate(46.28996995642672 64.19206575404223) rotate(0 6.357651891025569 -22.71412042213433)">
      <path d="M-0.96 -26.21 C0.96 -30.94, 4.74 -34.58, 12.72 -45.43 M-0.96 -26.21 C2.33 -30.85, 5.69 -35.43, 12.72 -45.43" stroke="currentColor" stroke-width="4" fill="none"></path>
    </g>
  </g>
</svg>
